<svg width="800" height="300" viewBox="0 0 800 300" fill="none" xmlns="http://www.w3.org/2000/svg"><defs><style>
    .bg-iu1mwkp9m { fill: #0d1117; }
    .card-border-iu1mwkp9m { fill: none; stroke: #30363d; stroke-width: 1; }
    .text-title-iu1mwkp9m { fill: #f0f6fc; font-family: -apple-system, BlinkMacSystemFont, "Segoe UI", sans-serif; font-weight: 600; font-size: 20px; }
    .text-axis-iu1mwkp9m { fill: #8b949e; font-family: -apple-system, sans-serif; font-size: 11px; }

    /* Line Animation */
    .line-path-iu1mwkp9m {
        fill: none;
        stroke: #10b981;
        stroke-width: 3;
        stroke-linecap: round;
        stroke-linejoin: round;
        stroke-dasharray: 2000;
        stroke-dashoffset: 2000;
        animation: drawLine 2.5s ease-in-out forwards;
    }

    /* Area Animation */
    .area-path-iu1mwkp9m {
        fill: url(#area-grad-iu1mwkp9m);
        opacity: 0;
        animation: fadeInArea 1.5s ease-out forwards 1s;
    }

    /* Dot Animation */
    .data-point-iu1mwkp9m {
        fill: #0d1117;
        stroke: #10b981;
        stroke-width: 2;
        opacity: 0;
        animation: popIn 0.4s cubic-bezier(0.175, 0.885, 0.32, 1.275) forwards;
    }

    @keyframes drawLine { to { stroke-dashoffset: 0; } }
    @keyframes fadeInArea { to { opacity: 0.4; } }
    @keyframes popIn { 
        from { transform: scale(0); opacity: 0; } 
        to { transform: scale(1); opacity: 1; } 
    }
  </style><linearGradient id="bg-grad-iu1mwkp9m" x1="0" y1="0" x2="1" y2="1"><stop offset="0%" stop-color="#0d1117"></stop><stop offset="100%" stop-color="#010409"></stop></linearGradient><linearGradient id="area-grad-iu1mwkp9m" x1="0" y1="0" x2="0" y2="1"><stop offset="0%" stop-color="#10b981" stop-opacity="0.8"></stop><stop offset="90%" stop-color="#10b981" stop-opacity="0"></stop></linearGradient></defs><rect width="800" height="300" rx="12" fill="url(#bg-grad-iu1mwkp9m)"></rect><rect width="798" height="298" x="1" y="1" rx="11" class="card-border-iu1mwkp9m"></rect><text x="40" y="45" class="text-title-iu1mwkp9m">Activity Graph (Last Year)</text><g><line x1="50" y1="240" x2="750" y2="240" stroke="#30363d" stroke-width="1"></line><line x1="50" y1="150" x2="750" y2="150" stroke="#21262d" stroke-width="1" stroke-dasharray="4 4"></line><line x1="50" y1="60" x2="750" y2="60" stroke="#21262d" stroke-width="1" stroke-dasharray="4 4"></line></g><g><path d="M 50 153.84340364599097 L 79.16666666666667 119.646975172037 L 108.33333333333334 145.79645062472977 L 137.5 88.2337847992323 L 166.66666666666669 101.15822926055282 L 195.83333333333334 107.73684469631985 L 225 159.82900401063893 L 254.16666666666669 150.79416735933816 L 283.33333333333337 157.9439067416056 L 312.5 196.38647127198325 L 341.6666666666667 190.5038834915007 L 370.83333333333337 167.59015802218346 L 400 170.83118651363043 L 429.1666666666667 136.0197990322526 L 458.33333333333337 130.73432723743548 L 487.5 142.63312671110899 L 516.6666666666667 131.1821239076865 L 545.8333333333334 145.31273781070723 L 575 152.16401682327134 L 604.1666666666667 145.68637712531637 L 633.3333333333334 152.59698252427546 L 662.5 191.79770861928378 L 691.6666666666667 186.597692815302 L 720.8333333333334 182.3500420508025 L 750 149.21550780445767 L 750 240 L 50 240 Z" class="area-path-iu1mwkp9m"></path><path d="M 50 153.84340364599097 L 79.16666666666667 119.646975172037 L 108.33333333333334 145.79645062472977 L 137.5 88.2337847992323 L 166.66666666666669 101.15822926055282 L 195.83333333333334 107.73684469631985 L 225 159.82900401063893 L 254.16666666666669 150.79416735933816 L 283.33333333333337 157.9439067416056 L 312.5 196.38647127198325 L 341.6666666666667 190.5038834915007 L 370.83333333333337 167.59015802218346 L 400 170.83118651363043 L 429.1666666666667 136.0197990322526 L 458.33333333333337 130.73432723743548 L 487.5 142.63312671110899 L 516.6666666666667 131.1821239076865 L 545.8333333333334 145.31273781070723 L 575 152.16401682327134 L 604.1666666666667 145.68637712531637 L 633.3333333333334 152.59698252427546 L 662.5 191.79770861928378 L 691.6666666666667 186.597692815302 L 720.8333333333334 182.3500420508025 L 750 149.21550780445767" class="line-path-iu1mwkp9m"></path><circle cx="50" cy="153.84340364599097" r="4" class="data-point-iu1mwkp9m" style="transform-box: fill-box; transform-origin: center center; animation-delay: 1s;"></circle><circle cx="166.66666666666669" cy="101.15822926055282" r="4" class="data-point-iu1mwkp9m" style="transform-box: fill-box; transform-origin: center center; animation-delay: 1.4s;"></circle><circle cx="283.33333333333337" cy="157.9439067416056" r="4" class="data-point-iu1mwkp9m" style="transform-box: fill-box; transform-origin: center center; animation-delay: 1.8s;"></circle><circle cx="400" cy="170.83118651363043" r="4" class="data-point-iu1mwkp9m" style="transform-box: fill-box; transform-origin: center center; animation-delay: 2.2s;"></circle><circle cx="516.6666666666667" cy="131.1821239076865" r="4" class="data-point-iu1mwkp9m" style="transform-box: fill-box; transform-origin: center center; animation-delay: 2.6s;"></circle><circle cx="633.3333333333334" cy="152.59698252427546" r="4" class="data-point-iu1mwkp9m" style="transform-box: fill-box; transform-origin: center center; animation-delay: 3s;"></circle><circle cx="750" cy="149.21550780445767" r="4" class="data-point-iu1mwkp9m" style="transform-box: fill-box; transform-origin: center center; animation-delay: 3.4s;"></circle></g><g transform="translate(0, 275)"><text x="50" class="text-axis-iu1mwkp9m">Jan</text><text x="400" class="text-axis-iu1mwkp9m" text-anchor="middle">Jul</text><text x="750" class="text-axis-iu1mwkp9m" text-anchor="end">Dec</text></g></svg>
