<svg width="137" height="40" viewBox="0 0 137 40" fill="none" xmlns="http://www.w3.org/2000/svg">
  <defs>
    <style>
      .badge-bg-link { fill: #0077B5; }
      .badge-text-link { fill: #ffffff; font-family: -apple-system, BlinkMacSystemFont, "Segoe UI", sans-serif; font-weight: 700; font-size: 14px; text-transform: uppercase; letter-spacing: 0.5px; text-anchor: middle; dominant-baseline: middle; }
      .icon-link { fill: #ffffff; }
      .hover-anim-link { animation: pulse 2s infinite; }
      @keyframes pulse { 0% { opacity: 1; } 50% { opacity: 0.85; } 100% { opacity: 1; } }
    </style>
  </defs>
  <g class="hover-anim-link">
    <rect width="137" height="40" rx="4" class="badge-bg-link"></rect>
    <path d="M 0 4 Q 0 0 4 0 L 45 0 L 45 40 L 4 40 Q 0 40 0 36 Z" fill="black" fill-opacity="0.2"></path>
    <g transform="translate(10, 8) scale(1)">
      <path d="M4 4H8V20H4V4ZM6 2C4.9 2 4 2.9 4 4C4 5.1 4.9 6 6 6C7.1 6 8 5.1 8 4C8 2.9 7.1 2 6 2ZM10 8H14V10C14.6 9 15.4 8 17 8C20 8 21 10 21 14V20H17V15C17 13.5 16.5 13 15.5 13C14.5 13 14 13.5 14 15V20H10V8Z" class="icon-link"></path>
    </g>
    <text x="91" y="21" class="badge-text-link">LinkedIn</text>
  </g>
</svg>
