<svg width="146" height="40" viewBox="0 0 146 40" fill="none" xmlns="http://www.w3.org/2000/svg">
  <defs>
    <style>
      .badge-bg-port { fill: #FF7139; }
      .badge-text-port { fill: #ffffff; font-family: -apple-system, BlinkMacSystemFont, "Segoe UI", sans-serif; font-weight: 700; font-size: 14px; text-transform: uppercase; letter-spacing: 0.5px; text-anchor: middle; dominant-baseline: middle; }
      .icon-port { fill: #ffffff; }
      .hover-anim-port { animation: pulse 2s infinite; }
      @keyframes pulse { 0% { opacity: 1; } 50% { opacity: 0.85; } 100% { opacity: 1; } }
    </style>
  </defs>
  <g class="hover-anim-port">
    <rect width="146" height="40" rx="4" class="badge-bg-port"></rect>
    <path d="M 0 4 Q 0 0 4 0 L 45 0 L 45 40 L 4 40 Q 0 40 0 36 Z" fill="black" fill-opacity="0.2"></path>
    <g transform="translate(10, 8) scale(1)">
      <path d="M20 7H16V5C16 3.9 15.1 3 14 3H10C8.9 3 8 3.9 8 5V7H4C2.9 7 2 7.9 2 9V19C2 20.1 2.9 21 4 21H20C21.1 21 22 20.1 22 19V9C22 7.9 21.1 7 20 7ZM10 5H14V7H10V5ZM20 19H4V9H8V11H16V9H20V19Z" class="icon-port"></path>
    </g>
    <text x="95.5" y="21" class="badge-text-port">Portfolio</text>
  </g>
</svg>
