<svg width="800" height="250" viewBox="0 0 800 250" fill="none" xmlns="http://www.w3.org/2000/svg"><defs><style>
    .bg-5amb7ankx { fill: #0d1117; }
    .card-border-5amb7ankx { fill: none; stroke: #30363d; stroke-width: 1; }
    .text-title-5amb7ankx { fill: #f0f6fc; font-family: -apple-system, BlinkMacSystemFont, "Segoe UI", sans-serif; font-weight: 600; font-size: 20px; }
    
    .badge-rect-5amb7ankx { transition: all 0.3s; }
    .badge-text-5amb7ankx { fill: #ffffff; font-family: -apple-system, BlinkMacSystemFont, "Segoe UI", sans-serif; font-weight: 700; font-size: 13px; text-transform: uppercase; letter-spacing: 0.5px; text-anchor: middle; dominant-baseline: middle; }
    
    .icon-5amb7ankx { fill: #ffffff; }

    .tech-item-5amb7ankx {
        opacity: 0;
        animation: popIn 0.5s cubic-bezier(0.175, 0.885, 0.32, 1.275) forwards;
    }

    @keyframes popIn { 
        from { transform: scale(0.8); opacity: 0; } 
        to { transform: scale(1); opacity: 1; } 
    }
  </style><linearGradient id="bg-grad-5amb7ankx" x1="0" y1="0" x2="1" y2="1"><stop offset="0%" stop-color="#0d1117"></stop><stop offset="100%" stop-color="#010409"></stop></linearGradient></defs><rect width="800" height="250" rx="12" fill="url(#bg-grad-5amb7ankx)"></rect><rect width="798" height="248" x="1" y="1" rx="11" class="card-border-5amb7ankx"></rect><text x="40" y="45" class="text-title-5amb7ankx">Технологии и Инструменты</text><line x1="40" y1="65" x2="760" y2="65" stroke="#30363d" stroke-width="1"></line><g transform="translate(20, 70)"><g transform="translate(0, 0)"><g class="tech-item-5amb7ankx" style="animation-delay: 0s; transform-origin: 70px 20px;"><rect width="140" height="40" rx="4" fill="#ED8B00" class="badge-rect-5amb7ankx"></rect><path d="M 0 4 Q 0 0 4 0 L 40 0 L 40 40 L 4 40 Q 0 40 0 36 Z" fill="black" fill-opacity="0.2"></path><g transform="translate(10, 10) scale(0.83)"><path d="M12 2C6.48 2 2 6.48 2 12C2 17.52 6.48 22 12 22C17.52 22 22 17.52 22 12C22 6.48 17.52 2 12 2ZM6 11H18V13H6V11Z" class="icon-5amb7ankx"></path></g><text x="90" y="21" class="badge-text-5amb7ankx">Java</text></g></g><g transform="translate(155, 0)"><g class="tech-item-5amb7ankx" style="animation-delay: 0.05s; transform-origin: 70px 20px;"><rect width="140" height="40" rx="4" fill="#3670A0" class="badge-rect-5amb7ankx"></rect><path d="M 0 4 Q 0 0 4 0 L 40 0 L 40 40 L 4 40 Q 0 40 0 36 Z" fill="black" fill-opacity="0.2"></path><g transform="translate(10, 10) scale(0.83)"><path d="M12 0C15.31 0 16.5 1.5 16.5 3.5V5.5H13.5V3.5C13.5 2.5 12.5 2.5 12 2.5C11.5 2.5 10.5 2.5 10.5 3.5V5H18.5V14H16.5V7H7.5V17H12.5V19H5.5V5H7.5V3.5C7.5 1.5 8.69 0 12 0ZM12 24C8.69 24 7.5 22.5 7.5 20.5V18.5H10.5V20.5C10.5 21.5 11.5 21.5 12 21.5C12.5 21.5 13.5 21.5 13.5 20.5V19H5.5V10H7.5V17H16.5V7H11.5V5H18.5V19H16.5V20.5C16.5 22.5 15.31 24 12 24Z" class="icon-5amb7ankx"></path></g><text x="90" y="21" class="badge-text-5amb7ankx">Python</text></g></g><g transform="translate(310, 0)"><g class="tech-item-5amb7ankx" style="animation-delay: 0.1s; transform-origin: 70px 20px;"><rect width="140" height="40" rx="4" fill="#7F52FF" class="badge-rect-5amb7ankx"></rect><path d="M 0 4 Q 0 0 4 0 L 40 0 L 40 40 L 4 40 Q 0 40 0 36 Z" fill="black" fill-opacity="0.2"></path><g transform="translate(10, 10) scale(0.83)"><path d="M2 2H12L2 12V2ZM2 22L12 12L22 22H2Z" class="icon-5amb7ankx"></path></g><text x="90" y="21" class="badge-text-5amb7ankx">Kotlin</text></g></g><g transform="translate(465, 0)"><g class="tech-item-5amb7ankx" style="animation-delay: 0.15s; transform-origin: 70px 20px;"><rect width="140" height="40" rx="4" fill="#F7DF1E" class="badge-rect-5amb7ankx"></rect><path d="M 0 4 Q 0 0 4 0 L 40 0 L 40 40 L 4 40 Q 0 40 0 36 Z" fill="black" fill-opacity="0.2"></path><g transform="translate(10, 10) scale(0.83)"><path d="M3 3H21V21H3V3ZM12 17H14V11H12V17ZM15 17H17V14H15V17Z" class="icon-5amb7ankx"></path></g><text x="90" y="21" class="badge-text-5amb7ankx">JavaScript</text></g></g><g transform="translate(620, 0)"><g class="tech-item-5amb7ankx" style="animation-delay: 0.2s; transform-origin: 70px 20px;"><rect width="140" height="40" rx="4" fill="#239120" class="badge-rect-5amb7ankx"></rect><path d="M 0 4 Q 0 0 4 0 L 40 0 L 40 40 L 4 40 Q 0 40 0 36 Z" fill="black" fill-opacity="0.2"></path><g transform="translate(10, 10) scale(0.83)"><path d="M12 2L22 20H2L12 2Z" class="icon-5amb7ankx"></path></g><text x="90" y="21" class="badge-text-5amb7ankx">C#</text></g></g><g transform="translate(0, 55)"><g class="tech-item-5amb7ankx" style="animation-delay: 0.25s; transform-origin: 70px 20px;"><rect width="140" height="40" rx="4" fill="#6DB33F" class="badge-rect-5amb7ankx"></rect><path d="M 0 4 Q 0 0 4 0 L 40 0 L 40 40 L 4 40 Q 0 40 0 36 Z" fill="black" fill-opacity="0.2"></path><g transform="translate(10, 10) scale(0.83)"><path d="M12 2C6.48 2 2 6.48 2 12C2 17.52 6.48 22 12 22C17.52 22 22 17.52 22 12C22 6.48 17.52 2 12 2Z" class="icon-5amb7ankx"></path></g><text x="90" y="21" class="badge-text-5amb7ankx">Spring</text></g></g><g transform="translate(155, 55)"><g class="tech-item-5amb7ankx" style="animation-delay: 0.3s; transform-origin: 70px 20px;"><rect width="140" height="40" rx="4" fill="#61DAFB" class="badge-rect-5amb7ankx"></rect><path d="M 0 4 Q 0 0 4 0 L 40 0 L 40 40 L 4 40 Q 0 40 0 36 Z" fill="black" fill-opacity="0.2"></path><g transform="translate(10, 10) scale(0.83)"><path d="M12 2C6.48 2 2 6.48 2 12C2 17.52 6.48 22 12 22C17.52 22 22 17.52 22 12C22 6.48 17.52 2 12 2ZM12 20C7.59 20 4 16.41 4 12C4 7.59 7.59 4 12 4C16.41 4 20 7.59 20 12C20 16.41 16.41 20 12 20Z" class="icon-5amb7ankx"></path></g><text x="90" y="21" class="badge-text-5amb7ankx">React</text></g></g><g transform="translate(310, 55)"><g class="tech-item-5amb7ankx" style="animation-delay: 0.35s; transform-origin: 70px 20px;"><rect width="140" height="40" rx="4" fill="#000000" class="badge-rect-5amb7ankx"></rect><path d="M 0 4 Q 0 0 4 0 L 40 0 L 40 40 L 4 40 Q 0 40 0 36 Z" fill="black" fill-opacity="0.2"></path><g transform="translate(10, 10) scale(0.83)"><path d="M12 2L2 22H22L12 2ZM12 6L17 18H7L12 6Z" class="icon-5amb7ankx"></path></g><text x="90" y="21" class="badge-text-5amb7ankx">Next JS</text></g></g><g transform="translate(465, 55)"><g class="tech-item-5amb7ankx" style="animation-delay: 0.4s; transform-origin: 70px 20px;"><rect width="140" height="40" rx="4" fill="#4FC08D" class="badge-rect-5amb7ankx"></rect><path d="M 0 4 Q 0 0 4 0 L 40 0 L 40 40 L 4 40 Q 0 40 0 36 Z" fill="black" fill-opacity="0.2"></path><g transform="translate(10, 10) scale(0.83)"><path d="M2 4L12 20L22 4H18L12 14L6 4H2Z" class="icon-5amb7ankx"></path></g><text x="90" y="21" class="badge-text-5amb7ankx">Vue.js</text></g></g><g transform="translate(620, 55)"><g class="tech-item-5amb7ankx" style="animation-delay: 0.45s; transform-origin: 70px 20px;"><rect width="140" height="40" rx="4" fill="#38B2AC" class="badge-rect-5amb7ankx"></rect><path d="M 0 4 Q 0 0 4 0 L 40 0 L 40 40 L 4 40 Q 0 40 0 36 Z" fill="black" fill-opacity="0.2"></path><g transform="translate(10, 10) scale(0.83)"><path d="M4 12C4 12 8 4 12 12C12 12 16 20 20 12" class="icon-5amb7ankx"></path></g><text x="90" y="21" class="badge-text-5amb7ankx">Tailwind</text></g></g><g transform="translate(0, 110)"><g class="tech-item-5amb7ankx" style="animation-delay: 0.5s; transform-origin: 70px 20px;"><rect width="140" height="40" rx="4" fill="#316192" class="badge-rect-5amb7ankx"></rect><path d="M 0 4 Q 0 0 4 0 L 40 0 L 40 40 L 4 40 Q 0 40 0 36 Z" fill="black" fill-opacity="0.2"></path><g transform="translate(10, 10) scale(0.83)"><path d="M12 2C6.5 2 2 6.5 2 12S6.5 22 12 22 22 17.5 22 12 17.5 2 12 2ZM12 18C8.7 18 6 15.3 6 12S8.7 6 12 6 18 8.7 18 12 15.3 18 12 18Z" class="icon-5amb7ankx"></path></g><text x="90" y="21" class="badge-text-5amb7ankx">PostgreSQL</text></g></g><g transform="translate(155, 110)"><g class="tech-item-5amb7ankx" style="animation-delay: 0.55s; transform-origin: 70px 20px;"><rect width="140" height="40" rx="4" fill="#4479A1" class="badge-rect-5amb7ankx"></rect><path d="M 0 4 Q 0 0 4 0 L 40 0 L 40 40 L 4 40 Q 0 40 0 36 Z" fill="black" fill-opacity="0.2"></path><g transform="translate(10, 10) scale(0.83)"><path d="M2 12C2 12 7 2 12 2C17 2 22 12 22 12C22 12 17 22 12 22C7 22 2 12 2 12Z" class="icon-5amb7ankx"></path></g><text x="90" y="21" class="badge-text-5amb7ankx">MySQL</text></g></g><g transform="translate(310, 110)"><g class="tech-item-5amb7ankx" style="animation-delay: 0.6s; transform-origin: 70px 20px;"><rect width="140" height="40" rx="4" fill="#2496ED" class="badge-rect-5amb7ankx"></rect><path d="M 0 4 Q 0 0 4 0 L 40 0 L 40 40 L 4 40 Q 0 40 0 36 Z" fill="black" fill-opacity="0.2"></path><g transform="translate(10, 10) scale(0.83)"><path d="M4 10H8V14H4V10ZM10 10H14V14H10V10ZM16 10H20V14H16V10ZM4 4H8V8H4V4ZM10 4H14V8H10V4ZM2 16H22V20H2V16Z" class="icon-5amb7ankx"></path></g><text x="90" y="21" class="badge-text-5amb7ankx">Docker</text></g></g><g transform="translate(465, 110)"><g class="tech-item-5amb7ankx" style="animation-delay: 0.65s; transform-origin: 70px 20px;"><rect width="140" height="40" rx="4" fill="#FF9900" class="badge-rect-5amb7ankx"></rect><path d="M 0 4 Q 0 0 4 0 L 40 0 L 40 40 L 4 40 Q 0 40 0 36 Z" fill="black" fill-opacity="0.2"></path><g transform="translate(10, 10) scale(0.83)"><path d="M12 15L15 9L18 15H12ZM6 15L9 9L12 15H6ZM2 15L5 9L8 15H2Z" class="icon-5amb7ankx"></path></g><text x="90" y="21" class="badge-text-5amb7ankx">AWS</text></g></g></g></svg>
