<svg width="128" height="40" viewBox="0 0 128 40" fill="none" xmlns="http://www.w3.org/2000/svg">
  <defs>
    <style>
      .badge-bg-twit { fill: #1DA1F2; }
      .badge-text-twit { fill: #ffffff; font-family: -apple-system, BlinkMacSystemFont, "Segoe UI", sans-serif; font-weight: 700; font-size: 14px; text-transform: uppercase; letter-spacing: 0.5px; text-anchor: middle; dominant-baseline: middle; }
      .icon-twit { fill: #ffffff; }
      .hover-anim-twit { animation: pulse 2s infinite; }
      @keyframes pulse { 0% { opacity: 1; } 50% { opacity: 0.85; } 100% { opacity: 1; } }
    </style>
  </defs>
  <g class="hover-anim-twit">
    <rect width="128" height="40" rx="4" class="badge-bg-twit"></rect>
    <path d="M 0 4 Q 0 0 4 0 L 45 0 L 45 40 L 4 40 Q 0 40 0 36 Z" fill="black" fill-opacity="0.2"></path>
    <g transform="translate(10, 8) scale(1)">
      <path d="M22 4C21.3 4.3 20.5 4.5 19.7 4.6C20.5 4.1 21.1 3.4 21.4 2.6C20.6 3.1 19.8 3.4 18.9 3.6C18.1 2.8 17 2.3 15.9 2.3C13.7 2.3 11.9 4.1 11.9 6.3C11.9 6.6 11.9 6.9 12 7.2C8.6 7 5.6 5.4 3.5 2.9C3.2 3.4 3 4 3 4.7C3 6.1 3.7 7.3 4.8 8C4.1 8 3.5 7.8 3 7.5V7.6C3 9.5 4.4 11.1 6.2 11.5C5.9 11.6 5.5 11.6 5.1 11.6C4.9 11.6 4.6 11.6 4.4 11.5C4.9 13.1 6.4 14.3 8.1 14.3C6.7 15.4 4.9 16.1 3 16.1C2.7 16.1 2.3 16.1 2 16.1C3.8 17.2 6 17.9 8.3 17.9C15.9 17.9 20.1 11.6 20.1 6.2C20.1 6 20.1 5.8 20.1 5.7C20.9 5.1 21.6 4.4 22 3.6V4Z" class="icon-twit"></path>
    </g>
    <text x="86.5" y="21" class="badge-text-twit">Twitter</text>
  </g>
</svg>
